<?xml version="1.0" encoding="utf-8"?>
<!-- Generator: Adobe Illustrator 16.0.3, SVG Export Plug-In . SVG Version: 6.00 Build 0)  -->
<svg version="1.2" baseProfile="tiny" id="Capa_1" xmlns="http://www.w3.org/2000/svg" xmlns:xlink="http://www.w3.org/1999/xlink"
	 x="0px" y="0px" width="48px" height="48px" viewBox="0 0 48 48" xml:space="preserve">
<g>
	<path stroke="#FFFFFF" stroke-width="0.5" stroke-miterlimit="10" d="M40.257,14.857l-0.001,0.015l-0.213-0.635H8.682L2.129,34.343
		c0,1.179,0.93,2.135,2.079,2.135h40.714c1.147,0,2.078-0.956,2.078-2.135L40.257,14.857z"/>
	<path stroke="#FFFFFF" stroke-width="0.5" stroke-miterlimit="10" d="M45.296,34.2H3.833c-0.626,0-1.171,0.455-1.468,1.131
		l2.154,6.307h39.858l2.388-6.307C46.469,34.655,45.923,34.2,45.296,34.2z"/>
</g>
<path stroke="#FFFFFF" stroke-width="0.5" stroke-miterlimit="10" d="M28.867,21.438"/>
<path stroke="#FFFFFF" stroke-width="0.5" stroke-miterlimit="10" d="M28.867,22.527"/>
<ellipse stroke="#FFFFFF" stroke-width="0.5" stroke-miterlimit="10" cx="28.865" cy="21.78" rx="0.438" ry="0.559"/>
<ellipse stroke="#FFFFFF" stroke-width="0.5" stroke-miterlimit="10" cx="28.866" cy="24.794" rx="9.645" ry="7.06"/>
<ellipse stroke="#FFFFFF" stroke-width="0.5" stroke-miterlimit="10" cx="28.868" cy="24.031" rx="8.156" ry="5.969"/>
<ellipse stroke="#FFFFFF" stroke-width="0.5" stroke-miterlimit="10" cx="29.045" cy="23.547" rx="6.868" ry="4.908"/>
<ellipse stroke="#FFFFFF" stroke-width="0.5" stroke-miterlimit="10" cx="29.045" cy="22.767" rx="5.776" ry="4.127"/>
<ellipse stroke="#FFFFFF" stroke-width="0.5" stroke-miterlimit="10" cx="29.045" cy="21.972" rx="4.663" ry="3.332"/>
<ellipse stroke="#FFFFFF" stroke-width="0.5" stroke-miterlimit="10" cx="29.045" cy="21.267" rx="3.101" ry="2.438"/>
<g>
	<path stroke="#FFFFFF" stroke-width="0.5" stroke-miterlimit="10" d="M31.672,6.901h-0.104c0.019-0.083,0.032-0.168,0.032-0.254
		c0-0.928-1.129-1.68-2.522-1.68c-1.391,0-2.52,0.752-2.52,1.68c0,0.086,0.013,0.171,0.032,0.254h-0.233v13.929h0.059
		c-0.038,0.119-0.059,0.242-0.059,0.369c0,0.978,1.189,1.771,2.657,1.771c1.467,0,2.657-0.794,2.657-1.771
		c0-0.126-0.021-0.25-0.061-0.369h0.061V6.901z"/>
	<rect x="27.848" y="5.393" stroke="#FFFFFF" stroke-width="0.5" stroke-miterlimit="10" width="2.462" height="17.42"/>
</g>
<ellipse fill="#FFFFFF" stroke="#000000" stroke-width="0.5" stroke-miterlimit="10" cx="28.905" cy="7.811" rx="5.57" ry="5.108"/>
<g>
	<ellipse stroke="#FFFFFF" stroke-width="0.5" stroke-miterlimit="10" cx="13.208" cy="23.02" rx="2.166" ry="1.443"/>
	<ellipse stroke="#FFFFFF" stroke-width="0.5" stroke-miterlimit="10" cx="13.208" cy="22.558" rx="2.166" ry="1.444"/>
	<ellipse stroke="#FFFFFF" stroke-width="0.5" stroke-miterlimit="10" cx="9.87" cy="26.789" rx="2.166" ry="1.443"/>
	<ellipse stroke="#FFFFFF" stroke-width="0.5" stroke-miterlimit="10" cx="9.87" cy="26.326" rx="2.166" ry="1.445"/>
	<ellipse stroke="#FFFFFF" stroke-width="0.5" stroke-miterlimit="10" cx="14.983" cy="27.125" rx="2.166" ry="1.444"/>
	<ellipse stroke="#FFFFFF" stroke-width="0.5" stroke-miterlimit="10" cx="14.983" cy="26.664" rx="2.166" ry="1.444"/>
</g>
<ellipse stroke="#000000" stroke-width="0.5" stroke-miterlimit="10" cx="28.866" cy="8.791" rx="3.706" ry="3.399"/>
</svg>
