<?xml version="1.0" encoding="utf-8"?>
<!-- Generator: Adobe Illustrator 16.0.3, SVG Export Plug-In . SVG Version: 6.00 Build 0)  -->
<svg version="1.2" baseProfile="tiny" id="Capa_1" xmlns="http://www.w3.org/2000/svg" xmlns:xlink="http://www.w3.org/1999/xlink"
	 x="0px" y="0px" width="160px" height="160px" viewBox="0 0 160 160" xml:space="preserve">
<g>
	<path stroke="#FFFFFF" stroke-width="0.75" stroke-miterlimit="10" d="M133.229,50.524l-0.005,0.048l-0.713-2.122H27.849
		l-21.871,67.1c0,3.935,3.106,7.127,6.938,7.127h135.878c3.833,0,6.938-3.192,6.938-7.127L133.229,50.524z"/>
	<path stroke="#FFFFFF" stroke-width="0.75" stroke-miterlimit="10" d="M150.046,115.078H11.666c-2.09,0-3.912,1.517-4.9,3.771
		l7.189,21.05h133.025l7.966-21.051C153.957,116.595,152.137,115.078,150.046,115.078z"/>
</g>
<path stroke="#FFFFFF" stroke-width="0.75" stroke-miterlimit="10" d="M95.213,72.486"/>
<path stroke="#FFFFFF" stroke-width="0.75" stroke-miterlimit="10" d="M95.213,76.118"/>
<ellipse stroke="#FFFFFF" stroke-width="0.75" stroke-miterlimit="10" cx="95.211" cy="73.624" rx="1.46" ry="1.865"/>
<path stroke="#FFFFFF" stroke-width="0.75" stroke-miterlimit="10" d="M127.401,83.686c0,13.015-14.412,23.562-32.192,23.562
	c-17.776,0-32.188-10.547-32.188-23.562c0-13.011,14.411-23.558,32.188-23.558C112.989,60.127,127.401,70.675,127.401,83.686z"/>
<ellipse stroke="#FFFFFF" stroke-width="0.75" stroke-miterlimit="10" cx="95.218" cy="81.14" rx="27.219" ry="19.921"/>
<ellipse stroke="#FFFFFF" stroke-width="0.75" stroke-miterlimit="10" cx="95.81" cy="79.526" rx="22.923" ry="16.38"/>
<ellipse stroke="#FFFFFF" stroke-width="0.75" stroke-miterlimit="10" cx="95.81" cy="76.917" rx="19.276" ry="13.776"/>
<ellipse stroke="#FFFFFF" stroke-width="0.75" stroke-miterlimit="10" cx="95.809" cy="74.265" rx="15.563" ry="11.122"/>
<ellipse stroke="#FFFFFF" stroke-width="0.75" stroke-miterlimit="10" cx="95.809" cy="71.913" rx="10.348" ry="8.136"/>
<g>
	<path stroke="#FFFFFF" stroke-width="0.75" stroke-miterlimit="10" d="M104.572,23.971h-0.343c0.063-0.279,0.104-0.561,0.104-0.85
		c0-3.098-3.767-5.608-8.411-5.608c-4.646,0-8.413,2.51-8.413,5.608c0,0.29,0.044,0.571,0.106,0.85h-0.778v46.487h0.196
		c-0.126,0.397-0.196,0.809-0.196,1.231c0,3.264,3.972,5.911,8.867,5.911c4.897,0,8.867-2.647,8.867-5.911
		c0-0.422-0.07-0.834-0.194-1.231h0.194V23.971z"/>
	<rect x="91.815" y="18.935" stroke="#FFFFFF" stroke-width="0.75" stroke-miterlimit="10" width="8.214" height="58.137"/>
</g>
<ellipse fill="#FFFFFF" stroke="#000000" stroke-width="0.75" stroke-miterlimit="10" cx="95.338" cy="27.005" rx="18.589" ry="17.049"/>
<g>
	<ellipse stroke="#FFFFFF" stroke-width="0.75" stroke-miterlimit="10" cx="42.954" cy="77.763" rx="7.227" ry="4.817"/>
	<ellipse stroke="#FFFFFF" stroke-width="0.75" stroke-miterlimit="10" cx="42.954" cy="76.222" rx="7.227" ry="4.819"/>
	<ellipse stroke="#FFFFFF" stroke-width="0.75" stroke-miterlimit="10" cx="31.816" cy="90.342" rx="7.228" ry="4.817"/>
	<ellipse stroke="#FFFFFF" stroke-width="0.75" stroke-miterlimit="10" cx="31.816" cy="88.801" rx="7.228" ry="4.819"/>
	<ellipse stroke="#FFFFFF" stroke-width="0.75" stroke-miterlimit="10" cx="48.878" cy="91.469" rx="7.227" ry="4.817"/>
	<ellipse stroke="#FFFFFF" stroke-width="0.75" stroke-miterlimit="10" cx="48.878" cy="89.926" rx="7.227" ry="4.819"/>
</g>
<ellipse stroke="#000000" stroke-width="0.75" stroke-miterlimit="10" cx="95.212" cy="30.276" rx="12.369" ry="11.344"/>
</svg>
