<?xml version="1.0" encoding="utf-8"?>
<!-- Generator: Adobe Illustrator 16.0.3, SVG Export Plug-In . SVG Version: 6.00 Build 0)  -->
<svg version="1.2" baseProfile="tiny" id="Capa_1" xmlns="http://www.w3.org/2000/svg" xmlns:xlink="http://www.w3.org/1999/xlink"
	 x="0px" y="0px" width="160px" height="160px" viewBox="0 0 160 160" xml:space="preserve">
<g>
	<path fill="#FFFFFF" stroke="#000000" stroke-miterlimit="10" d="M132.305,52.125l-0.005,0.047l-0.712-2.116H27.113L5.281,117.038
		c0,3.927,3.101,7.112,6.926,7.112h135.637c3.824,0,6.926-3.186,6.926-7.112L132.305,52.125z"/>
	<path stroke="#000000" stroke-miterlimit="10" d="M149.092,116.564H10.958c-2.086,0-3.905,1.515-4.892,3.765l7.177,21.012h132.789
		l7.952-21.013C152.997,118.079,151.178,116.564,149.092,116.564z"/>
	<path stroke="#FFFFFF" stroke-miterlimit="10" d="M94.355,74.048"/>
	<path stroke="#FFFFFF" stroke-miterlimit="10" d="M94.355,77.674"/>
	<ellipse stroke="#FFFFFF" stroke-miterlimit="10" cx="94.355" cy="75.184" rx="1.459" ry="1.859"/>
	<ellipse fill="#FFFFFF" stroke="#000000" stroke-miterlimit="10" cx="94.355" cy="85.229" rx="32.133" ry="23.519"/>
	<ellipse stroke="#FFFFFF" stroke-miterlimit="10" cx="94.361" cy="82.687" rx="27.171" ry="19.885"/>
	<ellipse stroke="#FFFFFF" stroke-miterlimit="10" cx="94.952" cy="81.074" rx="22.882" ry="16.354"/>
	<ellipse stroke="#FFFFFF" stroke-miterlimit="10" cx="94.952" cy="78.473" rx="19.241" ry="13.751"/>
	<ellipse stroke="#FFFFFF" stroke-miterlimit="10" cx="94.951" cy="75.824" rx="15.535" ry="11.102"/>
	<ellipse stroke="#FFFFFF" stroke-miterlimit="10" cx="94.952" cy="73.476" rx="10.33" ry="8.121"/>
	<g>
		<path stroke="#FFFFFF" stroke-miterlimit="10" d="M103.698,25.619h-0.343c0.063-0.277,0.106-0.559,0.106-0.847
			c0-3.092-3.76-5.599-8.397-5.599s-8.397,2.507-8.397,5.599c0,0.288,0.043,0.57,0.106,0.847h-0.777v46.405h0.195
			c-0.125,0.396-0.195,0.807-0.195,1.229c0,3.259,3.964,5.901,8.852,5.901s8.851-2.643,8.851-5.901c0-0.422-0.068-0.832-0.194-1.229
			h0.194V25.619z"/>
		<rect x="90.965" y="20.592" stroke="#FFFFFF" stroke-miterlimit="10" width="8.199" height="58.035"/>
	</g>
	<ellipse fill="#FFFFFF" stroke="#000000" stroke-miterlimit="10" cx="94.482" cy="28.649" rx="18.556" ry="17.018"/>
	<g>
		<ellipse stroke="#FFFFFF" stroke-miterlimit="10" cx="42.19" cy="80.315" rx="7.215" ry="4.81"/>
		<ellipse stroke="#FFFFFF" stroke-miterlimit="10" cx="42.19" cy="77.777" rx="7.215" ry="4.811"/>
		<ellipse stroke="#FFFFFF" stroke-miterlimit="10" cx="31.073" cy="92.872" rx="7.215" ry="4.81"/>
		<ellipse stroke="#FFFFFF" stroke-miterlimit="10" cx="31.073" cy="90.335" rx="7.215" ry="4.81"/>
		<ellipse stroke="#FFFFFF" stroke-miterlimit="10" cx="48.104" cy="93.996" rx="7.214" ry="4.81"/>
		<ellipse stroke="#FFFFFF" stroke-miterlimit="10" cx="48.104" cy="91.458" rx="7.214" ry="4.811"/>
	</g>
	<ellipse stroke="#000000" stroke-miterlimit="10" cx="94.354" cy="31.914" rx="12.347" ry="11.324"/>
</g>
</svg>
